<svg width="49" height="44" viewBox="0 0 49 44" fill="none" xmlns="http://www.w3.org/2000/svg">
<path d="M25.1999 6.32133C26.2962 3.113 30.7292 3.01583 32.0291 6.02983L32.1391 6.32317L33.6186 10.6498C33.9576 11.6421 34.5055 12.5501 35.2254 13.3126C35.9452 14.0751 36.8201 14.6744 37.7912 15.07L38.1891 15.2185L42.5157 16.6962C45.7241 17.7925 45.8212 22.2255 42.8091 23.5253L42.5157 23.6353L38.1891 25.1148C37.1965 25.4537 36.2881 26.0015 35.5253 26.7213C34.7624 27.4411 34.1629 28.3162 33.7671 29.2875L33.6186 29.6835L32.1409 34.012C31.0446 37.2203 26.6116 37.3175 25.3136 34.3053L25.1999 34.012L23.7222 29.6853C23.3834 28.6927 22.8356 27.7844 22.1158 27.0215C21.3959 26.2587 20.5209 25.6591 19.5496 25.2633L19.1536 25.1148L14.8269 23.6372C11.6167 22.5408 11.5196 18.1078 14.5336 16.8098L14.8269 16.6962L19.1536 15.2185C20.1458 14.8794 21.0538 14.3315 21.8164 13.6117C22.5789 12.8919 23.1781 12.0169 23.5737 11.0458L23.7222 10.6498L25.1999 6.32133ZM43.3371 3.3126e-07C43.6801 -4.32615e-07 44.0162 0.0962102 44.3072 0.277698C44.5982 0.459186 44.8325 0.718672 44.9834 1.02667L45.0714 1.24117L45.7131 3.12217L47.5959 3.76383C47.9396 3.88061 48.2409 4.0968 48.4617 4.38499C48.6824 4.67319 48.8126 5.02043 48.8357 5.38271C48.8589 5.74498 48.774 6.10597 48.5918 6.41994C48.4096 6.73391 48.1383 6.98672 47.8122 7.14633L47.5959 7.23433L45.7149 7.876L45.0732 9.75883C44.9563 10.1025 44.7399 10.4036 44.4516 10.6242C44.1633 10.8447 43.816 10.9747 43.4537 10.9977C43.0915 11.0206 42.7306 10.9355 42.4167 10.7532C42.1028 10.5708 41.8502 10.2994 41.6907 9.97333L41.6027 9.75883L40.9611 7.87783L39.0782 7.23617C38.7345 7.11939 38.4332 6.90321 38.2125 6.61501C37.9918 6.32681 37.8616 5.97957 37.8384 5.6173C37.8152 5.25502 37.9001 4.89403 38.0823 4.58006C38.2645 4.26609 38.5359 4.01328 38.8619 3.85367L39.0782 3.76567L40.9592 3.124L41.6009 1.24117C41.7245 0.878947 41.9584 0.564499 42.2698 0.341915C42.5811 0.11933 42.9543 -0.000229683 43.3371 3.3126e-07Z" fill="#1D2E4A"/>
<path d="M12.5024 30.8357C12.8454 30.8357 13.1815 30.9319 13.4725 31.1134C13.7636 31.2949 13.9978 31.5543 14.1487 31.8623L14.2367 32.0768L14.8784 33.9578L16.7612 34.5995C17.105 34.7163 17.4063 34.9325 17.627 35.2207C17.8477 35.5089 17.9779 35.8561 18.0011 36.2184C18.0243 36.5806 17.9394 36.9416 17.7571 37.2556C17.5749 37.5696 17.3036 37.8224 16.9776 37.982L16.7612 38.07L14.8802 38.7117L14.2386 40.5945C14.1216 40.9381 13.9052 41.2393 13.6169 41.4598C13.3286 41.6804 12.9813 41.8104 12.6191 41.8333C12.2568 41.8563 11.8959 41.7712 11.582 41.5889C11.2682 41.4065 11.0155 41.1351 10.8561 40.809L10.7681 40.5945L10.1264 38.7135L8.24358 38.0718C7.89986 37.9551 7.59855 37.7389 7.37783 37.4507C7.1571 37.1625 7.02691 36.8152 7.00374 36.453C6.98057 36.0907 7.06547 35.7297 7.24768 35.4157C7.42989 35.1018 7.70121 34.8489 8.02725 34.6893L8.24358 34.6013L10.1246 33.9597L10.7662 32.0768C10.8899 31.7146 11.1238 31.4002 11.4351 31.1776C11.7465 30.955 12.1197 30.8354 12.5024 30.8357Z" fill="#1D2E4A"/>
</svg>
