<svg width="441" height="545" viewBox="0 0 441 545" fill="none" xmlns="http://www.w3.org/2000/svg">
<g filter="url(#filter0_d_101_90)">
<rect x="45.5" y="51.5" width="328" height="448" rx="18.5" stroke="url(#paint0_linear_101_90)" stroke-width="3" shape-rendering="crispEdges"/>
</g>
<g filter="url(#filter1_f_101_90)">
<rect x="20" y="33" width="56" height="56" fill="#D2CFCA"/>
</g>
<g filter="url(#filter2_f_101_90)">
<rect x="136" y="30" width="140" height="54" fill="#D2CFCA"/>
</g>
<rect x="60" y="72" width="299" height="407" rx="20" fill="#D9D9D9"/>
<rect x="93" y="112" width="164" height="17" rx="8.5" fill="url(#paint1_linear_101_90)"/>
<rect x="93.5" y="112.5" width="163" height="16" rx="8" stroke="black" stroke-opacity="0.09"/>
<rect x="94" y="137" width="213" height="14" rx="7" fill="url(#paint2_linear_101_90)" stroke="#950A0A" stroke-width="2"/>
<rect x="93" y="160" width="107" height="17" rx="8.5" fill="url(#paint3_linear_101_90)"/>
<rect x="93.5" y="160.5" width="106" height="16" rx="8" stroke="black" stroke-opacity="0.09"/>
<rect x="93" y="208" width="173" height="17" rx="8.5" fill="url(#paint4_linear_101_90)"/>
<rect x="93.5" y="208.5" width="172" height="16" rx="8" stroke="black" stroke-opacity="0.09"/>
<rect x="93" y="232" width="143" height="17" rx="8.5" fill="url(#paint5_linear_101_90)"/>
<rect x="93.5" y="232.5" width="142" height="16" rx="8" stroke="black" stroke-opacity="0.09"/>
<rect x="93" y="256" width="227" height="17" rx="8.5" fill="url(#paint6_linear_101_90)"/>
<rect x="93.5" y="256.5" width="226" height="16" rx="8" stroke="black" stroke-opacity="0.09"/>
<rect x="93.5" y="280.5" width="85" height="14" rx="7" fill="url(#paint7_linear_101_90)" stroke="#939511"/>
<rect x="93" y="328" width="173" height="17" rx="8.5" fill="url(#paint8_linear_101_90)"/>
<rect x="93.5" y="328.5" width="172" height="16" rx="8" stroke="black" stroke-opacity="0.09"/>
<rect x="93" y="400" width="143" height="17" rx="8.5" fill="url(#paint9_linear_101_90)"/>
<rect x="93.5" y="400.5" width="142" height="16" rx="8" stroke="black" stroke-opacity="0.09"/>
<rect x="93" y="376" width="227" height="17" rx="8.5" fill="url(#paint10_linear_101_90)"/>
<rect x="93.5" y="376.5" width="226" height="16" rx="8" stroke="black" stroke-opacity="0.09"/>
<rect x="93" y="352" width="86" height="17" rx="8.5" fill="url(#paint11_linear_101_90)"/>
<rect x="93.5" y="352.5" width="85" height="16" rx="8" stroke="black" stroke-opacity="0.09"/>
<rect x="298" y="142" width="4" height="4" rx="2" fill="#950A0A"/>
<rect x="296.5" y="140.5" width="7" height="7" rx="3.5" stroke="#950A0A"/>
<line x1="300" y1="144" x2="316" y2="144" stroke="#950A0A"/>
<g filter="url(#filter3_d_101_90)">
<rect x="313" y="134" width="111" height="70" rx="10" fill="#D9D9D9"/>
</g>
<path d="M324.155 141.293C324.379 140.637 325.286 140.617 325.551 141.233L325.574 141.293L325.877 142.178C325.946 142.381 326.058 142.567 326.205 142.723C326.352 142.879 326.531 143.002 326.73 143.083L326.811 143.113L327.696 143.415C328.353 143.639 328.373 144.546 327.756 144.812L327.696 144.835L326.811 145.137C326.608 145.206 326.423 145.318 326.267 145.466C326.111 145.613 325.988 145.792 325.907 145.991L325.877 146.072L325.574 146.957C325.35 147.613 324.443 147.633 324.178 147.017L324.155 146.957L323.852 146.072C323.783 145.869 323.671 145.683 323.524 145.527C323.377 145.371 323.198 145.248 322.999 145.168L322.918 145.137L322.033 144.835C321.376 144.611 321.356 143.704 321.973 143.438L322.033 143.415L322.918 143.113C323.121 143.044 323.307 142.931 323.463 142.784C323.618 142.637 323.741 142.458 323.822 142.259L323.852 142.178L324.155 141.293ZM327.864 140C327.935 140 328.003 140.02 328.063 140.057C328.122 140.094 328.17 140.147 328.201 140.21L328.219 140.254L328.35 140.639L328.736 140.77C328.806 140.794 328.868 140.838 328.913 140.897C328.958 140.956 328.984 141.027 328.989 141.101C328.994 141.175 328.977 141.249 328.939 141.313C328.902 141.377 328.847 141.429 328.78 141.462L328.736 141.48L328.351 141.611L328.22 141.996C328.196 142.066 328.151 142.128 328.092 142.173C328.033 142.218 327.962 142.245 327.888 142.25C327.814 142.254 327.74 142.237 327.676 142.2C327.612 142.162 327.56 142.107 327.528 142.04L327.51 141.996L327.378 141.611L326.993 141.48C326.923 141.456 326.861 141.412 326.816 141.353C326.771 141.294 326.744 141.223 326.74 141.149C326.735 141.075 326.752 141.001 326.79 140.937C326.827 140.873 326.882 140.821 326.949 140.788L326.993 140.77L327.378 140.639L327.509 140.254C327.535 140.18 327.582 140.115 327.646 140.07C327.71 140.024 327.786 140 327.864 140Z" fill="#910B0B"/>
<path d="M321.557 146.307C321.628 146.307 321.696 146.327 321.756 146.364C321.815 146.401 321.863 146.454 321.894 146.517L321.912 146.561L322.043 146.946L322.429 147.077C322.499 147.101 322.56 147.145 322.606 147.204C322.651 147.263 322.677 147.334 322.682 147.408C322.687 147.482 322.669 147.556 322.632 147.62C322.595 147.685 322.539 147.736 322.473 147.769L322.429 147.787L322.044 147.918L321.913 148.303C321.889 148.374 321.844 148.435 321.785 148.48C321.726 148.526 321.655 148.552 321.581 148.557C321.507 148.562 321.433 148.544 321.369 148.507C321.305 148.47 321.253 148.414 321.221 148.347L321.203 148.303L321.071 147.919L320.686 147.787C320.616 147.764 320.554 147.719 320.509 147.66C320.464 147.601 320.437 147.53 320.433 147.456C320.428 147.382 320.445 147.308 320.483 147.244C320.52 147.18 320.575 147.128 320.642 147.096L320.686 147.078L321.071 146.946L321.202 146.561C321.228 146.487 321.275 146.423 321.339 146.377C321.403 146.332 321.479 146.307 321.557 146.307Z" fill="#910B0B"/>
<path d="M334.368 147V141.24H336.944C337.36 141.24 337.723 141.312 338.032 141.456C338.341 141.595 338.581 141.792 338.752 142.048C338.923 142.304 339.008 142.603 339.008 142.944C339.008 143.28 338.923 143.576 338.752 143.832C338.581 144.083 338.341 144.28 338.032 144.424C337.723 144.563 337.36 144.632 336.944 144.632H335.344V143.728H336.912C337.205 143.728 337.429 143.661 337.584 143.528C337.744 143.389 337.824 143.197 337.824 142.952C337.824 142.701 337.747 142.512 337.592 142.384C337.437 142.251 337.211 142.184 336.912 142.184H335.6V147H334.368ZM337.616 147L335.304 144.008H336.608L339.28 147H337.616ZM339.73 147V142.92H340.93V147H339.73ZM339.69 142.376V141.08H340.97V142.376H339.69ZM343.511 147.08C342.913 147.08 342.439 146.96 342.087 146.72C341.735 146.48 341.543 146.149 341.511 145.728H342.583C342.609 145.909 342.7 146.048 342.855 146.144C343.015 146.235 343.233 146.28 343.511 146.28C343.761 146.28 343.943 146.245 344.055 146.176C344.172 146.101 344.231 145.997 344.231 145.864C344.231 145.763 344.196 145.685 344.127 145.632C344.063 145.573 343.943 145.525 343.767 145.488L343.111 145.352C342.625 145.251 342.268 145.099 342.039 144.896C341.809 144.688 341.695 144.421 341.695 144.096C341.695 143.701 341.847 143.395 342.151 143.176C342.455 142.952 342.879 142.84 343.423 142.84C343.961 142.84 344.391 142.949 344.711 143.168C345.031 143.381 345.207 143.68 345.239 144.064H344.167C344.145 143.925 344.071 143.821 343.943 143.752C343.815 143.677 343.633 143.64 343.399 143.64C343.185 143.64 343.025 143.672 342.919 143.736C342.817 143.795 342.767 143.88 342.767 143.992C342.767 144.088 342.809 144.165 342.895 144.224C342.98 144.277 343.121 144.325 343.319 144.368L344.055 144.52C344.465 144.605 344.775 144.765 344.983 145C345.196 145.229 345.303 145.501 345.303 145.816C345.303 146.216 345.145 146.528 344.831 146.752C344.521 146.971 344.081 147.08 343.511 147.08ZM345.894 147V141.24H347.094V147H345.894ZM348.51 147L346.814 144.88L348.47 142.92H349.854L347.91 145.064L347.966 144.688L349.934 147H348.51ZM351.892 147V141.24H353.124V147H351.892ZM352.468 147V146.056H355.892V147H352.468ZM358.314 147.08C357.861 147.08 357.466 146.992 357.13 146.816C356.794 146.635 356.533 146.384 356.346 146.064C356.165 145.744 356.074 145.376 356.074 144.96C356.074 144.539 356.165 144.171 356.346 143.856C356.533 143.536 356.791 143.288 357.122 143.112C357.453 142.931 357.837 142.84 358.274 142.84C358.695 142.84 359.061 142.925 359.37 143.096C359.679 143.267 359.919 143.504 360.09 143.808C360.261 144.112 360.346 144.469 360.346 144.88C360.346 144.965 360.343 145.045 360.338 145.12C360.333 145.189 360.325 145.256 360.314 145.32H356.778V144.528H359.346L359.138 144.672C359.138 144.341 359.058 144.099 358.898 143.944C358.743 143.784 358.53 143.704 358.258 143.704C357.943 143.704 357.698 143.811 357.522 144.024C357.351 144.237 357.266 144.557 357.266 144.984C357.266 145.4 357.351 145.709 357.522 145.912C357.698 146.115 357.959 146.216 358.306 146.216C358.498 146.216 358.663 146.184 358.802 146.12C358.941 146.056 359.045 145.952 359.114 145.808H360.242C360.109 146.203 359.879 146.515 359.554 146.744C359.234 146.968 358.821 147.08 358.314 147.08ZM361.983 147L360.375 142.92H361.663L362.919 146.728H362.247L363.495 142.92H364.751L363.143 147H361.983ZM367.009 147.08C366.556 147.08 366.161 146.992 365.825 146.816C365.489 146.635 365.228 146.384 365.041 146.064C364.86 145.744 364.769 145.376 364.769 144.96C364.769 144.539 364.86 144.171 365.041 143.856C365.228 143.536 365.487 143.288 365.817 143.112C366.148 142.931 366.532 142.84 366.969 142.84C367.391 142.84 367.756 142.925 368.065 143.096C368.375 143.267 368.615 143.504 368.785 143.808C368.956 144.112 369.041 144.469 369.041 144.88C369.041 144.965 369.039 145.045 369.033 145.12C369.028 145.189 369.02 145.256 369.009 145.32H365.473V144.528H368.041L367.833 144.672C367.833 144.341 367.753 144.099 367.593 143.944C367.439 143.784 367.225 143.704 366.953 143.704C366.639 143.704 366.393 143.811 366.217 144.024C366.047 144.237 365.961 144.557 365.961 144.984C365.961 145.4 366.047 145.709 366.217 145.912C366.393 146.115 366.655 146.216 367.001 146.216C367.193 146.216 367.359 146.184 367.497 146.12C367.636 146.056 367.74 145.952 367.809 145.808H368.937C368.804 146.203 368.575 146.515 368.249 146.744C367.929 146.968 367.516 147.08 367.009 147.08ZM369.683 147V141.24H370.883V147H369.683ZM371.839 147V145.68H373.159V147H371.839ZM371.839 144.4V143.08H373.159V144.4H371.839Z" fill="#5D6F85"/>
<path d="M377.088 147V141.24H378.32V147H377.088ZM380.816 147V141.24H382.048V147H380.816ZM377.664 143.528H381.376V144.472H377.664V143.528ZM382.925 147V142.92H384.125V147H382.925ZM382.885 142.376V141.08H384.165V142.376H382.885ZM386.923 148.72C386.357 148.72 385.896 148.6 385.539 148.36C385.187 148.12 384.979 147.795 384.915 147.384H386.051C386.093 147.485 386.184 147.563 386.323 147.616C386.467 147.669 386.648 147.696 386.867 147.696C387.229 147.696 387.493 147.627 387.659 147.488C387.824 147.349 387.907 147.133 387.907 146.84V145.952L387.971 145.968C387.917 146.267 387.763 146.504 387.507 146.68C387.251 146.851 386.933 146.936 386.555 146.936C386.192 146.936 385.875 146.853 385.603 146.688C385.336 146.517 385.128 146.28 384.979 145.976C384.829 145.672 384.755 145.315 384.755 144.904C384.755 144.488 384.832 144.125 384.987 143.816C385.141 143.507 385.357 143.267 385.635 143.096C385.917 142.925 386.245 142.84 386.618 142.84C387.003 142.84 387.315 142.931 387.555 143.112C387.8 143.293 387.944 143.541 387.987 143.856L387.931 143.864V142.92H389.107V146.824C389.107 147.411 388.912 147.872 388.523 148.208C388.133 148.549 387.6 148.72 386.923 148.72ZM386.971 146.016C387.253 146.016 387.483 145.92 387.659 145.728C387.835 145.531 387.923 145.251 387.923 144.888C387.923 144.525 387.832 144.248 387.651 144.056C387.475 143.859 387.243 143.76 386.955 143.76C386.677 143.76 386.448 143.859 386.267 144.056C386.091 144.253 386.003 144.533 386.003 144.896C386.003 145.259 386.091 145.536 386.267 145.728C386.448 145.92 386.683 146.016 386.971 146.016ZM390.066 147V141.24H391.266V147H390.066ZM392.906 147V144.472C392.906 144.248 392.847 144.08 392.73 143.968C392.618 143.856 392.453 143.8 392.234 143.8C392.047 143.8 391.879 143.843 391.73 143.928C391.586 144.013 391.471 144.131 391.386 144.28C391.306 144.429 391.266 144.605 391.266 144.808L391.162 143.824C391.295 143.525 391.49 143.288 391.746 143.112C392.007 142.931 392.327 142.84 392.706 142.84C393.159 142.84 393.506 142.968 393.746 143.224C393.986 143.475 394.106 143.813 394.106 144.24V147H392.906Z" fill="#910B0B"/>
<rect x="334" y="154" width="47" height="8" rx="4" fill="url(#paint12_linear_101_90)"/>
<rect x="334.5" y="154.5" width="46" height="7" rx="3.5" stroke="#950A0A" stroke-opacity="0.6"/>
<rect x="334" y="165" width="83" height="8" rx="4" fill="url(#paint13_linear_101_90)"/>
<rect x="334.5" y="165.5" width="82" height="7" rx="3.5" stroke="#950A0A" stroke-opacity="0.6"/>
<rect x="334" y="176" width="25" height="8" rx="4" fill="url(#paint14_linear_101_90)"/>
<rect x="334.5" y="176.5" width="24" height="7" rx="3.5" stroke="#950A0A" stroke-opacity="0.6"/>
<rect x="167" y="286" width="4" height="4" rx="2" fill="#939511"/>
<rect x="165.5" y="284.5" width="7" height="7" rx="3.5" stroke="#939511"/>
<line x1="169" y1="288" x2="185" y2="288" stroke="#939511"/>
<g filter="url(#filter4_d_101_90)">
<rect x="182" y="278" width="111" height="44" rx="10" fill="#D9D9D9"/>
</g>
<path d="M192.723 292.722L192.718 292.722L192.692 292.736L192.684 292.737L192.679 292.736L192.652 292.722C192.648 292.721 192.645 292.722 192.643 292.724L192.642 292.728L192.635 292.889L192.637 292.896L192.641 292.901L192.68 292.929L192.686 292.93L192.69 292.929L192.729 292.901L192.734 292.895L192.735 292.889L192.729 292.728C192.728 292.724 192.726 292.722 192.723 292.722ZM192.822 292.679L192.817 292.68L192.748 292.715L192.744 292.719L192.743 292.723L192.749 292.884L192.751 292.889L192.754 292.892L192.83 292.926C192.834 292.927 192.838 292.926 192.841 292.923L192.842 292.918L192.829 292.688C192.828 292.683 192.826 292.68 192.822 292.679ZM192.554 292.68C192.552 292.679 192.55 292.679 192.548 292.679C192.546 292.68 192.545 292.681 192.544 292.682L192.541 292.688L192.529 292.918C192.529 292.922 192.531 292.925 192.535 292.927L192.541 292.926L192.616 292.891L192.62 292.888L192.621 292.884L192.628 292.723L192.626 292.718L192.623 292.715L192.554 292.68Z" fill="#929412"/>
<path d="M193.155 285.293C193.379 284.637 194.286 284.617 194.551 285.233L194.574 285.293L194.877 286.178C194.946 286.381 195.058 286.567 195.205 286.723C195.352 286.879 195.531 287.002 195.73 287.083L195.811 287.113L196.696 287.415C197.353 287.639 197.373 288.546 196.756 288.812L196.696 288.835L195.811 289.137C195.608 289.206 195.423 289.318 195.267 289.466C195.111 289.613 194.988 289.792 194.907 289.991L194.877 290.072L194.574 290.957C194.35 291.613 193.443 291.633 193.178 291.017L193.155 290.957L192.852 290.072C192.783 289.869 192.671 289.683 192.524 289.527C192.377 289.371 192.198 289.248 191.999 289.168L191.918 289.137L191.033 288.835C190.376 288.611 190.356 287.704 190.973 287.438L191.033 287.415L191.918 287.113C192.121 287.044 192.307 286.931 192.463 286.784C192.618 286.637 192.741 286.458 192.822 286.259L192.852 286.178L193.155 285.293ZM196.864 284C196.935 284 197.003 284.02 197.063 284.057C197.122 284.094 197.17 284.147 197.201 284.21L197.219 284.254L197.35 284.639L197.736 284.77C197.806 284.794 197.868 284.838 197.913 284.897C197.958 284.956 197.984 285.027 197.989 285.101C197.994 285.175 197.977 285.249 197.939 285.313C197.902 285.377 197.847 285.429 197.78 285.462L197.736 285.48L197.351 285.611L197.22 285.996C197.196 286.066 197.151 286.128 197.092 286.173C197.033 286.218 196.962 286.245 196.888 286.25C196.814 286.254 196.74 286.237 196.676 286.2C196.612 286.162 196.56 286.107 196.528 286.04L196.51 285.996L196.378 285.611L195.993 285.48C195.923 285.456 195.861 285.412 195.816 285.353C195.771 285.294 195.744 285.223 195.74 285.149C195.735 285.075 195.752 285.001 195.79 284.937C195.827 284.873 195.882 284.821 195.949 284.788L195.993 284.77L196.378 284.639L196.509 284.254C196.535 284.18 196.582 284.115 196.646 284.07C196.71 284.024 196.786 284 196.864 284Z" fill="#929412"/>
<path d="M190.557 290.307C190.628 290.307 190.696 290.327 190.756 290.364C190.815 290.401 190.863 290.454 190.894 290.517L190.912 290.561L191.043 290.946L191.429 291.077C191.499 291.101 191.56 291.145 191.606 291.204C191.651 291.263 191.677 291.334 191.682 291.408C191.687 291.482 191.669 291.556 191.632 291.62C191.595 291.685 191.539 291.736 191.473 291.769L191.429 291.787L191.044 291.918L190.913 292.303C190.889 292.374 190.844 292.435 190.785 292.48C190.726 292.526 190.655 292.552 190.581 292.557C190.507 292.562 190.433 292.544 190.369 292.507C190.305 292.47 190.253 292.414 190.221 292.347L190.203 292.303L190.071 291.919L189.686 291.787C189.616 291.764 189.554 291.719 189.509 291.66C189.464 291.601 189.437 291.53 189.433 291.456C189.428 291.382 189.445 291.308 189.483 291.244C189.52 291.18 189.575 291.128 189.642 291.096L189.686 291.078L190.071 290.946L190.202 290.561C190.228 290.487 190.275 290.423 190.339 290.377C190.403 290.332 190.479 290.307 190.557 290.307Z" fill="#929412"/>
<path d="M203.368 291V285.24H205.944C206.36 285.24 206.723 285.312 207.032 285.456C207.341 285.595 207.581 285.792 207.752 286.048C207.923 286.304 208.008 286.603 208.008 286.944C208.008 287.28 207.923 287.576 207.752 287.832C207.581 288.083 207.341 288.28 207.032 288.424C206.723 288.563 206.36 288.632 205.944 288.632H204.344V287.728H205.912C206.205 287.728 206.429 287.661 206.584 287.528C206.744 287.389 206.824 287.197 206.824 286.952C206.824 286.701 206.747 286.512 206.592 286.384C206.437 286.251 206.211 286.184 205.912 286.184H204.6V291H203.368ZM206.616 291L204.304 288.008H205.608L208.28 291H206.616ZM208.73 291V286.92H209.93V291H208.73ZM208.69 286.376V285.08H209.97V286.376H208.69ZM212.511 291.08C211.913 291.08 211.439 290.96 211.087 290.72C210.735 290.48 210.543 290.149 210.511 289.728H211.583C211.609 289.909 211.7 290.048 211.855 290.144C212.015 290.235 212.233 290.28 212.511 290.28C212.761 290.28 212.943 290.245 213.055 290.176C213.172 290.101 213.231 289.997 213.231 289.864C213.231 289.763 213.196 289.685 213.127 289.632C213.063 289.573 212.943 289.525 212.767 289.488L212.111 289.352C211.625 289.251 211.268 289.099 211.039 288.896C210.809 288.688 210.695 288.421 210.695 288.096C210.695 287.701 210.847 287.395 211.151 287.176C211.455 286.952 211.879 286.84 212.423 286.84C212.961 286.84 213.391 286.949 213.711 287.168C214.031 287.381 214.207 287.68 214.239 288.064H213.167C213.145 287.925 213.071 287.821 212.943 287.752C212.815 287.677 212.633 287.64 212.399 287.64C212.185 287.64 212.025 287.672 211.919 287.736C211.817 287.795 211.767 287.88 211.767 287.992C211.767 288.088 211.809 288.165 211.895 288.224C211.98 288.277 212.121 288.325 212.319 288.368L213.055 288.52C213.465 288.605 213.775 288.765 213.983 289C214.196 289.229 214.303 289.501 214.303 289.816C214.303 290.216 214.145 290.528 213.831 290.752C213.521 290.971 213.081 291.08 212.511 291.08ZM214.894 291V285.24H216.094V291H214.894ZM217.51 291L215.814 288.88L217.47 286.92H218.854L216.91 289.064L216.966 288.688L218.934 291H217.51ZM220.892 291V285.24H222.124V291H220.892ZM221.468 291V290.056H224.892V291H221.468ZM227.314 291.08C226.861 291.08 226.466 290.992 226.13 290.816C225.794 290.635 225.533 290.384 225.346 290.064C225.165 289.744 225.074 289.376 225.074 288.96C225.074 288.539 225.165 288.171 225.346 287.856C225.533 287.536 225.791 287.288 226.122 287.112C226.453 286.931 226.837 286.84 227.274 286.84C227.695 286.84 228.061 286.925 228.37 287.096C228.679 287.267 228.919 287.504 229.09 287.808C229.261 288.112 229.346 288.469 229.346 288.88C229.346 288.965 229.343 289.045 229.338 289.12C229.333 289.189 229.325 289.256 229.314 289.32H225.778V288.528H228.346L228.138 288.672C228.138 288.341 228.058 288.099 227.898 287.944C227.743 287.784 227.53 287.704 227.258 287.704C226.943 287.704 226.698 287.811 226.522 288.024C226.351 288.237 226.266 288.557 226.266 288.984C226.266 289.4 226.351 289.709 226.522 289.912C226.698 290.115 226.959 290.216 227.306 290.216C227.498 290.216 227.663 290.184 227.802 290.12C227.941 290.056 228.045 289.952 228.114 289.808H229.242C229.109 290.203 228.879 290.515 228.554 290.744C228.234 290.968 227.821 291.08 227.314 291.08ZM230.983 291L229.375 286.92H230.663L231.919 290.728H231.247L232.495 286.92H233.751L232.143 291H230.983ZM236.009 291.08C235.556 291.08 235.161 290.992 234.825 290.816C234.489 290.635 234.228 290.384 234.041 290.064C233.86 289.744 233.769 289.376 233.769 288.96C233.769 288.539 233.86 288.171 234.041 287.856C234.228 287.536 234.487 287.288 234.817 287.112C235.148 286.931 235.532 286.84 235.969 286.84C236.391 286.84 236.756 286.925 237.065 287.096C237.375 287.267 237.615 287.504 237.785 287.808C237.956 288.112 238.041 288.469 238.041 288.88C238.041 288.965 238.039 289.045 238.033 289.12C238.028 289.189 238.02 289.256 238.009 289.32H234.473V288.528H237.041L236.833 288.672C236.833 288.341 236.753 288.099 236.593 287.944C236.439 287.784 236.225 287.704 235.953 287.704C235.639 287.704 235.393 287.811 235.217 288.024C235.047 288.237 234.961 288.557 234.961 288.984C234.961 289.4 235.047 289.709 235.217 289.912C235.393 290.115 235.655 290.216 236.001 290.216C236.193 290.216 236.359 290.184 236.497 290.12C236.636 290.056 236.74 289.952 236.809 289.808H237.937C237.804 290.203 237.575 290.515 237.249 290.744C236.929 290.968 236.516 291.08 236.009 291.08ZM238.683 291V285.24H239.883V291H238.683ZM240.839 291V289.68H242.159V291H240.839ZM240.839 288.4V287.08H242.159V288.4H240.839Z" fill="#5D6F85"/>
<path d="M246.088 291V285.24H248.008L249.608 290.792H248.912L250.512 285.24H252.44V291H251.224V285.584H251.432L249.872 291H248.6L247.056 285.632H247.256V291H246.088ZM255.236 291.08C254.783 291.08 254.388 290.992 254.052 290.816C253.716 290.635 253.455 290.384 253.268 290.064C253.087 289.744 252.996 289.376 252.996 288.96C252.996 288.539 253.087 288.171 253.268 287.856C253.455 287.536 253.713 287.288 254.044 287.112C254.375 286.931 254.759 286.84 255.196 286.84C255.617 286.84 255.983 286.925 256.292 287.096C256.601 287.267 256.841 287.504 257.012 287.808C257.183 288.112 257.268 288.469 257.268 288.88C257.268 288.965 257.265 289.045 257.26 289.12C257.255 289.189 257.247 289.256 257.236 289.32H253.7V288.528H256.268L256.06 288.672C256.06 288.341 255.98 288.099 255.82 287.944C255.665 287.784 255.452 287.704 255.18 287.704C254.865 287.704 254.62 287.811 254.444 288.024C254.273 288.237 254.188 288.557 254.188 288.984C254.188 289.4 254.273 289.709 254.444 289.912C254.62 290.115 254.881 290.216 255.228 290.216C255.42 290.216 255.585 290.184 255.724 290.12C255.863 290.056 255.967 289.952 256.036 289.808H257.164C257.031 290.203 256.801 290.515 256.476 290.744C256.156 290.968 255.743 291.08 255.236 291.08ZM260.86 291V290.096L260.94 290.112C260.887 290.405 260.727 290.64 260.46 290.816C260.199 290.992 259.884 291.08 259.516 291.08C259.143 291.08 258.818 290.995 258.54 290.824C258.268 290.648 258.058 290.403 257.908 290.088C257.759 289.773 257.684 289.403 257.684 288.976C257.684 288.544 257.762 288.168 257.916 287.848C258.071 287.528 258.287 287.28 258.564 287.104C258.847 286.928 259.175 286.84 259.548 286.84C259.938 286.84 260.252 286.931 260.492 287.112C260.738 287.293 260.882 287.541 260.924 287.856L260.836 287.864V285.24H262.036V291H260.86ZM259.9 290.12C260.183 290.12 260.412 290.021 260.588 289.824C260.764 289.621 260.852 289.333 260.852 288.96C260.852 288.587 260.762 288.301 260.58 288.104C260.404 287.901 260.172 287.8 259.884 287.8C259.607 287.8 259.378 287.901 259.196 288.104C259.02 288.307 258.932 288.595 258.932 288.968C258.932 289.341 259.02 289.627 259.196 289.824C259.378 290.021 259.612 290.12 259.9 290.12ZM262.996 291V286.92H264.196V291H262.996ZM262.956 286.376V285.08H264.236V286.376H262.956ZM266.323 291.08C266.035 291.08 265.787 291.019 265.579 290.896C265.377 290.768 265.222 290.6 265.115 290.392C265.009 290.179 264.955 289.941 264.955 289.68V286.92H266.155V289.448C266.155 289.672 266.211 289.84 266.323 289.952C266.435 290.064 266.593 290.12 266.795 290.12C266.977 290.12 267.137 290.077 267.275 289.992C267.414 289.907 267.523 289.789 267.603 289.64C267.689 289.485 267.731 289.309 267.731 289.112L267.835 290.096C267.702 290.389 267.507 290.627 267.251 290.808C266.995 290.989 266.686 291.08 266.323 291.08ZM267.755 291V290.04H267.731V286.92H268.931V291H267.755ZM269.894 291V286.92H271.07V287.88H271.094V291H269.894ZM272.638 291V288.408C272.638 288.2 272.582 288.048 272.47 287.952C272.363 287.851 272.211 287.8 272.014 287.8C271.843 287.8 271.686 287.84 271.542 287.92C271.403 287.995 271.294 288.104 271.214 288.248C271.134 288.387 271.094 288.552 271.094 288.744L270.99 287.824C271.123 287.525 271.315 287.288 271.566 287.112C271.822 286.931 272.129 286.84 272.486 286.84C272.913 286.84 273.243 286.96 273.478 287.2C273.718 287.44 273.838 287.741 273.838 288.104V291H272.638ZM275.382 291V288.408C275.382 288.2 275.326 288.048 275.214 287.952C275.107 287.851 274.955 287.8 274.758 287.8C274.587 287.8 274.43 287.84 274.286 287.92C274.147 287.995 274.038 288.104 273.958 288.248C273.878 288.387 273.838 288.552 273.838 288.744L273.654 287.824C273.787 287.525 273.985 287.288 274.246 287.112C274.513 286.931 274.833 286.84 275.206 286.84C275.649 286.84 275.987 286.965 276.222 287.216C276.462 287.461 276.582 287.784 276.582 288.184V291H275.382Z" fill="#929412"/>
<rect x="203.5" y="297.5" width="60" height="7" rx="3.5" fill="url(#paint15_linear_101_90)" stroke="#939511"/>
<rect x="203.5" y="307.5" width="24" height="7" rx="3.5" fill="url(#paint16_linear_101_90)" stroke="#939511"/>
<g filter="url(#filter5_d_101_90)">
<path d="M47.1999 45.3213C48.2962 42.113 52.7292 42.0158 54.0291 45.0298L54.1391 45.3232L55.6186 49.6498C55.9576 50.6421 56.5055 51.5501 57.2254 52.3126C57.9452 53.0751 58.8201 53.6744 59.7912 54.07L60.1891 54.2185L64.5157 55.6962C67.7241 56.7925 67.8212 61.2255 64.8091 62.5253L64.5157 62.6353L60.1891 64.1148C59.1965 64.4537 58.2881 65.0015 57.5253 65.7213C56.7624 66.4411 56.1629 67.3162 55.7671 68.2875L55.6186 68.6835L54.1409 73.012C53.0446 76.2203 48.6116 76.3175 47.3136 73.3053L47.1999 73.012L45.7222 68.6853C45.3834 67.6927 44.8356 66.7844 44.1158 66.0215C43.3959 65.2587 42.5209 64.6591 41.5496 64.2633L41.1536 64.1148L36.8269 62.6372C33.6167 61.5408 33.5196 57.1078 36.5336 55.8098L36.8269 55.6962L41.1536 54.2185C42.1458 53.8794 43.0538 53.3315 43.8164 52.6117C44.5789 51.8919 45.1781 51.0169 45.5737 50.0458L45.7222 49.6498L47.1999 45.3213ZM65.3371 39C65.6801 39 66.0162 39.0962 66.3072 39.2777C66.5982 39.4592 66.8325 39.7187 66.9834 40.0267L67.0714 40.2412L67.7131 42.1222L69.5959 42.7638C69.9396 42.8806 70.2409 43.0968 70.4617 43.385C70.6824 43.6732 70.8126 44.0204 70.8357 44.3827C70.8589 44.745 70.774 45.106 70.5918 45.4199C70.4096 45.7339 70.1383 45.9867 69.8122 46.1463L69.5959 46.2343L67.7149 46.876L67.0732 48.7588C66.9563 49.1025 66.7399 49.4036 66.4516 49.6242C66.1633 49.8447 65.816 49.9747 65.4537 49.9977C65.0915 50.0206 64.7306 49.9355 64.4167 49.7532C64.1028 49.5708 63.8502 49.2994 63.6907 48.9733L63.6027 48.7588L62.9611 46.8778L61.0782 46.2362C60.7345 46.1194 60.4332 45.9032 60.2125 45.615C59.9918 45.3268 59.8616 44.9796 59.8384 44.6173C59.8152 44.255 59.9001 43.894 60.0823 43.5801C60.2645 43.2661 60.5359 43.0133 60.8619 42.8537L61.0782 42.7657L62.9592 42.124L63.6009 40.2412C63.7245 39.8789 63.9584 39.5645 64.2698 39.3419C64.5811 39.1193 64.9543 38.9998 65.3371 39Z" fill="#1D2E4A"/>
<path d="M34.5024 69.8357C34.8454 69.8357 35.1815 69.9319 35.4725 70.1134C35.7636 70.2949 35.9978 70.5543 36.1487 70.8623L36.2367 71.0768L36.8784 72.9578L38.7612 73.5995C39.105 73.7163 39.4063 73.9325 39.627 74.2207C39.8477 74.5089 39.9779 74.8561 40.0011 75.2184C40.0243 75.5806 39.9394 75.9416 39.7571 76.2556C39.5749 76.5696 39.3036 76.8224 38.9776 76.982L38.7612 77.07L36.8802 77.7117L36.2386 79.5945C36.1216 79.9381 35.9052 80.2393 35.6169 80.4598C35.3286 80.6804 34.9813 80.8104 34.6191 80.8333C34.2568 80.8563 33.8959 80.7712 33.582 80.5889C33.2682 80.4065 33.0155 80.1351 32.8561 79.809L32.7681 79.5945L32.1264 77.7135L30.2436 77.0718C29.8999 76.9551 29.5986 76.7389 29.3778 76.4507C29.1571 76.1625 29.0269 75.8152 29.0037 75.453C28.9806 75.0907 29.0655 74.7297 29.2477 74.4157C29.4299 74.1018 29.7012 73.8489 30.0272 73.6893L30.2436 73.6013L32.1246 72.9597L32.7662 71.0768C32.8899 70.7146 33.1238 70.4002 33.4351 70.1776C33.7465 69.955 34.1197 69.8354 34.5024 69.8357Z" fill="#1D2E4A"/>
</g>
<path d="M165.91 55.1C165.39 55.1 164.91 55.01 164.47 54.83C164.03 54.6433 163.647 54.3833 163.32 54.05C163 53.7167 162.75 53.3233 162.57 52.87C162.39 52.41 162.3 51.91 162.3 51.37C162.3 50.83 162.387 50.3367 162.56 49.89C162.74 49.4433 162.99 49.0567 163.31 48.73C163.637 48.3967 164.02 48.1433 164.46 47.97C164.9 47.79 165.383 47.7 165.91 47.7C166.503 47.7 167.037 47.8167 167.51 48.05C167.99 48.2767 168.38 48.6 168.68 49.02C168.987 49.4333 169.173 49.92 169.24 50.48H167.74C167.653 49.9667 167.443 49.58 167.11 49.32C166.777 49.0533 166.38 48.92 165.92 48.92C165.513 48.92 165.153 49.0167 164.84 49.21C164.533 49.4033 164.293 49.6833 164.12 50.05C163.947 50.41 163.86 50.8467 163.86 51.36C163.86 51.88 163.947 52.33 164.12 52.71C164.3 53.0833 164.547 53.3733 164.86 53.58C165.173 53.78 165.533 53.88 165.94 53.88C166.373 53.88 166.757 53.75 167.09 53.49C167.423 53.23 167.64 52.8433 167.74 52.33H169.26C169.173 52.89 168.977 53.38 168.67 53.8C168.363 54.2133 167.973 54.5333 167.5 54.76C167.027 54.9867 166.497 55.1 165.91 55.1ZM172.5 55.1C171.94 55.1 171.447 54.99 171.02 54.77C170.6 54.5433 170.27 54.23 170.03 53.83C169.797 53.4233 169.68 52.9567 169.68 52.43C169.68 51.9033 169.797 51.4433 170.03 51.05C170.27 50.6567 170.6 50.35 171.02 50.13C171.447 49.91 171.94 49.8 172.5 49.8C173.067 49.8 173.56 49.91 173.98 50.13C174.407 50.35 174.737 50.6567 174.97 51.05C175.204 51.4433 175.32 51.9033 175.32 52.43C175.32 52.9567 175.2 53.4233 174.96 53.83C174.727 54.23 174.397 54.5433 173.97 54.77C173.55 54.99 173.06 55.1 172.5 55.1ZM172.5 53.92C172.734 53.92 172.944 53.86 173.13 53.74C173.324 53.62 173.477 53.45 173.59 53.23C173.704 53.0033 173.76 52.7333 173.76 52.42C173.76 51.96 173.637 51.6067 173.39 51.36C173.15 51.1067 172.854 50.98 172.5 50.98C172.147 50.98 171.847 51.1067 171.6 51.36C171.36 51.6133 171.24 51.9667 171.24 52.42C171.24 52.7333 171.297 53.0033 171.41 53.23C171.524 53.45 171.674 53.62 171.86 53.74C172.054 53.86 172.267 53.92 172.5 53.92ZM176.116 55V49.9H177.586V51.1H177.616V55H176.116ZM179.666 55V51.84C179.666 51.56 179.592 51.35 179.446 51.21C179.306 51.07 179.099 51 178.826 51C178.592 51 178.382 51.0533 178.196 51.16C178.016 51.2667 177.872 51.4133 177.766 51.6C177.666 51.7867 177.616 52.0067 177.616 52.26L177.486 51.03C177.652 50.6567 177.896 50.36 178.216 50.14C178.542 49.9133 178.942 49.8 179.416 49.8C179.982 49.8 180.416 49.96 180.716 50.28C181.016 50.5933 181.166 51.0167 181.166 51.55V55H179.666ZM184.512 55.11C183.859 55.11 183.372 54.9533 183.052 54.64C182.739 54.32 182.582 53.8367 182.582 53.19V48.76L184.082 48.2V53.24C184.082 53.4667 184.146 53.6367 184.272 53.75C184.399 53.8633 184.596 53.92 184.862 53.92C184.962 53.92 185.056 53.91 185.142 53.89C185.229 53.87 185.316 53.8467 185.402 53.82V54.96C185.316 55.0067 185.192 55.0433 185.032 55.07C184.879 55.0967 184.706 55.11 184.512 55.11ZM181.632 51.04V49.9H185.402V51.04H181.632ZM186.301 55V49.9H187.771V51.1H187.801V55H186.301ZM187.801 52.34L187.671 51.13C187.791 50.6967 187.988 50.3667 188.261 50.14C188.535 49.9133 188.875 49.8 189.281 49.8C189.408 49.8 189.501 49.8133 189.561 49.84V51.24C189.528 51.2267 189.481 51.22 189.421 51.22C189.361 51.2133 189.288 51.21 189.201 51.21C188.721 51.21 188.368 51.2967 188.141 51.47C187.915 51.6367 187.801 51.9267 187.801 52.34ZM193.31 55C193.27 54.8533 193.24 54.6967 193.22 54.53C193.207 54.3633 193.2 54.17 193.2 53.95H193.16V51.54C193.16 51.3333 193.09 51.1733 192.95 51.06C192.817 50.94 192.617 50.88 192.35 50.88C192.097 50.88 191.893 50.9233 191.74 51.01C191.593 51.0967 191.497 51.2233 191.45 51.39H190.02C190.087 50.93 190.323 50.55 190.73 50.25C191.137 49.95 191.693 49.8 192.4 49.8C193.133 49.8 193.693 49.9633 194.08 50.29C194.467 50.6167 194.66 51.0867 194.66 51.7V53.95C194.66 54.1167 194.67 54.2867 194.69 54.46C194.717 54.6267 194.757 54.8067 194.81 55H193.31ZM191.53 55.1C191.023 55.1 190.62 54.9733 190.32 54.72C190.02 54.46 189.87 54.1167 189.87 53.69C189.87 53.2167 190.047 52.8367 190.4 52.55C190.76 52.2567 191.26 52.0667 191.9 51.98L193.39 51.77V52.64L192.15 52.83C191.883 52.87 191.687 52.9433 191.56 53.05C191.433 53.1567 191.37 53.3033 191.37 53.49C191.37 53.6567 191.43 53.7833 191.55 53.87C191.67 53.9567 191.83 54 192.03 54C192.343 54 192.61 53.9167 192.83 53.75C193.05 53.5767 193.16 53.3767 193.16 53.15L193.3 53.95C193.153 54.33 192.93 54.6167 192.63 54.81C192.33 55.0033 191.963 55.1 191.53 55.1ZM198.006 55.1C197.472 55.1 197.002 54.9867 196.596 54.76C196.189 54.5333 195.869 54.22 195.636 53.82C195.409 53.42 195.296 52.9633 195.296 52.45C195.296 51.9367 195.409 51.48 195.636 51.08C195.869 50.68 196.189 50.3667 196.596 50.14C197.002 49.9133 197.472 49.8 198.006 49.8C198.452 49.8 198.852 49.8833 199.206 50.05C199.566 50.21 199.859 50.4333 200.086 50.72C200.319 51.0067 200.469 51.3433 200.536 51.73H199.086C199.012 51.4833 198.879 51.2967 198.686 51.17C198.499 51.0433 198.279 50.98 198.026 50.98C197.786 50.98 197.576 51.04 197.396 51.16C197.222 51.28 197.089 51.45 196.996 51.67C196.902 51.89 196.856 52.15 196.856 52.45C196.856 52.75 196.902 53.01 196.996 53.23C197.089 53.45 197.222 53.62 197.396 53.74C197.576 53.86 197.786 53.92 198.026 53.92C198.279 53.92 198.499 53.8567 198.686 53.73C198.879 53.6033 199.012 53.4167 199.086 53.17H200.536C200.469 53.5567 200.319 53.8933 200.086 54.18C199.859 54.4667 199.566 54.6933 199.206 54.86C198.852 55.02 198.452 55.1 198.006 55.1ZM203.663 55.11C203.009 55.11 202.523 54.9533 202.203 54.64C201.889 54.32 201.733 53.8367 201.733 53.19V48.76L203.233 48.2V53.24C203.233 53.4667 203.296 53.6367 203.423 53.75C203.549 53.8633 203.746 53.92 204.013 53.92C204.113 53.92 204.206 53.91 204.293 53.89C204.379 53.87 204.466 53.8467 204.553 53.82V54.96C204.466 55.0067 204.343 55.0433 204.183 55.07C204.029 55.0967 203.856 55.11 203.663 55.11ZM200.783 51.04V49.9H204.553V51.04H200.783ZM206.996 55L209.576 47.8H210.896L208.526 55H206.996ZM212.276 55L209.916 47.8H211.296L213.876 55H212.276ZM208.356 52.21H212.396V53.41H208.356V52.21ZM214.719 55V49.9H216.189V51.1H216.219V55H214.719ZM218.269 55V51.84C218.269 51.56 218.196 51.35 218.049 51.21C217.909 51.07 217.702 51 217.429 51C217.196 51 216.986 51.0533 216.799 51.16C216.619 51.2667 216.476 51.4133 216.369 51.6C216.269 51.7867 216.219 52.0067 216.219 52.26L216.089 51.03C216.256 50.6567 216.499 50.36 216.819 50.14C217.146 49.9133 217.546 49.8 218.019 49.8C218.586 49.8 219.019 49.96 219.319 50.28C219.619 50.5933 219.769 51.0167 219.769 51.55V55H218.269ZM223.994 55C223.954 54.8533 223.924 54.6967 223.904 54.53C223.89 54.3633 223.884 54.17 223.884 53.95H223.844V51.54C223.844 51.3333 223.774 51.1733 223.634 51.06C223.5 50.94 223.3 50.88 223.034 50.88C222.78 50.88 222.577 50.9233 222.424 51.01C222.277 51.0967 222.18 51.2233 222.134 51.39H220.704C220.77 50.93 221.007 50.55 221.414 50.25C221.82 49.95 222.377 49.8 223.084 49.8C223.817 49.8 224.377 49.9633 224.764 50.29C225.15 50.6167 225.344 51.0867 225.344 51.7V53.95C225.344 54.1167 225.354 54.2867 225.374 54.46C225.4 54.6267 225.44 54.8067 225.494 55H223.994ZM222.214 55.1C221.707 55.1 221.304 54.9733 221.004 54.72C220.704 54.46 220.554 54.1167 220.554 53.69C220.554 53.2167 220.73 52.8367 221.084 52.55C221.444 52.2567 221.944 52.0667 222.584 51.98L224.074 51.77V52.64L222.834 52.83C222.567 52.87 222.37 52.9433 222.244 53.05C222.117 53.1567 222.054 53.3033 222.054 53.49C222.054 53.6567 222.114 53.7833 222.234 53.87C222.354 53.9567 222.514 54 222.714 54C223.027 54 223.294 53.9167 223.514 53.75C223.734 53.5767 223.844 53.3767 223.844 53.15L223.984 53.95C223.837 54.33 223.614 54.6167 223.314 54.81C223.014 55.0033 222.647 55.1 222.214 55.1ZM226.496 55V47.8H227.996V55H226.496ZM229.452 57.05L230.862 53.93L231.122 53.5L232.442 49.9H234.042L230.952 57.05H229.452ZM230.532 54.9L228.572 49.9H230.192L231.802 54.46L230.532 54.9ZM234.403 55V53.96L237.243 50.51L237.543 51.04H234.483V49.9H238.743V50.94L235.963 54.32L235.683 53.86H238.783V55H234.403ZM241.982 55.1C241.416 55.1 240.922 54.99 240.502 54.77C240.082 54.5433 239.756 54.23 239.522 53.83C239.296 53.43 239.182 52.97 239.182 52.45C239.182 51.9233 239.296 51.4633 239.522 51.07C239.756 50.67 240.079 50.36 240.492 50.14C240.906 49.9133 241.386 49.8 241.932 49.8C242.459 49.8 242.916 49.9067 243.302 50.12C243.689 50.3333 243.989 50.63 244.202 51.01C244.416 51.39 244.522 51.8367 244.522 52.35C244.522 52.4567 244.519 52.5567 244.512 52.65C244.506 52.7367 244.496 52.82 244.482 52.9H240.062V51.91H243.272L243.012 52.09C243.012 51.6767 242.912 51.3733 242.712 51.18C242.519 50.98 242.252 50.88 241.912 50.88C241.519 50.88 241.212 51.0133 240.992 51.28C240.779 51.5467 240.672 51.9467 240.672 52.48C240.672 53 240.779 53.3867 240.992 53.64C241.212 53.8933 241.539 54.02 241.972 54.02C242.212 54.02 242.419 53.98 242.592 53.9C242.766 53.82 242.896 53.69 242.982 53.51H244.392C244.226 54.0033 243.939 54.3933 243.532 54.68C243.132 54.96 242.616 55.1 241.982 55.1ZM249.013 55V53.87L249.113 53.89C249.046 54.2567 248.846 54.55 248.513 54.77C248.186 54.99 247.793 55.1 247.333 55.1C246.866 55.1 246.459 54.9933 246.113 54.78C245.773 54.56 245.509 54.2533 245.323 53.86C245.136 53.4667 245.043 53.0033 245.043 52.47C245.043 51.93 245.139 51.46 245.333 51.06C245.526 50.66 245.796 50.35 246.143 50.13C246.496 49.91 246.906 49.8 247.373 49.8C247.859 49.8 248.253 49.9133 248.553 50.14C248.859 50.3667 249.039 50.6767 249.093 51.07L248.983 51.08V47.8H250.483V55H249.013ZM247.813 53.9C248.166 53.9 248.453 53.7767 248.673 53.53C248.893 53.2767 249.003 52.9167 249.003 52.45C249.003 51.9833 248.889 51.6267 248.663 51.38C248.443 51.1267 248.153 51 247.793 51C247.446 51 247.159 51.1267 246.933 51.38C246.713 51.6333 246.603 51.9933 246.603 52.46C246.603 52.9267 246.713 53.2833 246.933 53.53C247.159 53.7767 247.453 53.9 247.813 53.9Z" fill="#4D74B2"/>
<defs>
<filter id="filter0_d_101_90" x="0.599998" y="6.6" width="417.8" height="537.8" filterUnits="userSpaceOnUse" color-interpolation-filters="sRGB">
<feFlood flood-opacity="0" result="BackgroundImageFix"/>
<feColorMatrix in="SourceAlpha" type="matrix" values="0 0 0 0 0 0 0 0 0 0 0 0 0 0 0 0 0 0 127 0" result="hardAlpha"/>
<feMorphology radius="3" operator="dilate" in="SourceAlpha" result="effect1_dropShadow_101_90"/>
<feOffset/>
<feGaussianBlur stdDeviation="20.2"/>
<feComposite in2="hardAlpha" operator="out"/>
<feColorMatrix type="matrix" values="0 0 0 0 0.270588 0 0 0 0 0.431373 0 0 0 0 0.690196 0 0 0 1 0"/>
<feBlend mode="normal" in2="BackgroundImageFix" result="effect1_dropShadow_101_90"/>
<feBlend mode="normal" in="SourceGraphic" in2="effect1_dropShadow_101_90" result="shape"/>
</filter>
<filter id="filter1_f_101_90" x="9.1" y="22.1" width="77.8" height="77.8" filterUnits="userSpaceOnUse" color-interpolation-filters="sRGB">
<feFlood flood-opacity="0" result="BackgroundImageFix"/>
<feBlend mode="normal" in="SourceGraphic" in2="BackgroundImageFix" result="shape"/>
<feGaussianBlur stdDeviation="5.45" result="effect1_foregroundBlur_101_90"/>
</filter>
<filter id="filter2_f_101_90" x="106.4" y="0.4" width="199.2" height="113.2" filterUnits="userSpaceOnUse" color-interpolation-filters="sRGB">
<feFlood flood-opacity="0" result="BackgroundImageFix"/>
<feBlend mode="normal" in="SourceGraphic" in2="BackgroundImageFix" result="shape"/>
<feGaussianBlur stdDeviation="14.8" result="effect1_foregroundBlur_101_90"/>
</filter>
<filter id="filter3_d_101_90" x="296.8" y="117.8" width="143.4" height="102.4" filterUnits="userSpaceOnUse" color-interpolation-filters="sRGB">
<feFlood flood-opacity="0" result="BackgroundImageFix"/>
<feColorMatrix in="SourceAlpha" type="matrix" values="0 0 0 0 0 0 0 0 0 0 0 0 0 0 0 0 0 0 127 0" result="hardAlpha"/>
<feMorphology radius="5" operator="dilate" in="SourceAlpha" result="effect1_dropShadow_101_90"/>
<feOffset/>
<feGaussianBlur stdDeviation="5.6"/>
<feComposite in2="hardAlpha" operator="out"/>
<feColorMatrix type="matrix" values="0 0 0 0 0 0 0 0 0 0 0 0 0 0 0 0 0 0 0.25 0"/>
<feBlend mode="normal" in2="BackgroundImageFix" result="effect1_dropShadow_101_90"/>
<feBlend mode="normal" in="SourceGraphic" in2="effect1_dropShadow_101_90" result="shape"/>
</filter>
<filter id="filter4_d_101_90" x="172.5" y="268.5" width="130" height="63" filterUnits="userSpaceOnUse" color-interpolation-filters="sRGB">
<feFlood flood-opacity="0" result="BackgroundImageFix"/>
<feColorMatrix in="SourceAlpha" type="matrix" values="0 0 0 0 0 0 0 0 0 0 0 0 0 0 0 0 0 0 127 0" result="hardAlpha"/>
<feMorphology radius="3" operator="dilate" in="SourceAlpha" result="effect1_dropShadow_101_90"/>
<feOffset/>
<feGaussianBlur stdDeviation="3.25"/>
<feComposite in2="hardAlpha" operator="out"/>
<feColorMatrix type="matrix" values="0 0 0 0 0 0 0 0 0 0 0 0 0 0 0 0 0 0 0.25 0"/>
<feBlend mode="normal" in2="BackgroundImageFix" result="effect1_dropShadow_101_90"/>
<feBlend mode="normal" in="SourceGraphic" in2="effect1_dropShadow_101_90" result="shape"/>
</filter>
<filter id="filter5_d_101_90" x="18.1" y="35.1" width="56.6395" height="51.8" filterUnits="userSpaceOnUse" color-interpolation-filters="sRGB">
<feFlood flood-opacity="0" result="BackgroundImageFix"/>
<feColorMatrix in="SourceAlpha" type="matrix" values="0 0 0 0 0 0 0 0 0 0 0 0 0 0 0 0 0 0 127 0" result="hardAlpha"/>
<feOffset/>
<feGaussianBlur stdDeviation="1.95"/>
<feComposite in2="hardAlpha" operator="out"/>
<feColorMatrix type="matrix" values="0 0 0 0 0.0519556 0 0 0 0 0.24535 0 0 0 0 0.556667 0 0 0 1 0"/>
<feBlend mode="normal" in2="BackgroundImageFix" result="effect1_dropShadow_101_90"/>
<feBlend mode="normal" in="SourceGraphic" in2="effect1_dropShadow_101_90" result="shape"/>
</filter>
<linearGradient id="paint0_linear_101_90" x1="16" y1="553.5" x2="249.5" y2="175.5" gradientUnits="userSpaceOnUse">
<stop stop-color="#1D2E4A"/>
<stop offset="1" stop-color="#456DB0"/>
</linearGradient>
<linearGradient id="paint1_linear_101_90" x1="93" y1="120.5" x2="257" y2="120.5" gradientUnits="userSpaceOnUse">
<stop stop-color="#31476D"/>
<stop offset="1" stop-color="#D2CFCA" stop-opacity="0.21"/>
</linearGradient>
<linearGradient id="paint2_linear_101_90" x1="93" y1="144" x2="308" y2="144" gradientUnits="userSpaceOnUse">
<stop stop-color="#BE7676"/>
<stop offset="1" stop-color="#D2CFCA" stop-opacity="0.21"/>
</linearGradient>
<linearGradient id="paint3_linear_101_90" x1="93" y1="168.5" x2="200" y2="168.5" gradientUnits="userSpaceOnUse">
<stop stop-color="#344A6F"/>
<stop offset="1" stop-color="#D2CFCA" stop-opacity="0.21"/>
</linearGradient>
<linearGradient id="paint4_linear_101_90" x1="93" y1="216.5" x2="266" y2="216.5" gradientUnits="userSpaceOnUse">
<stop stop-color="#294168"/>
<stop offset="1" stop-color="#D2CFCA" stop-opacity="0.21"/>
</linearGradient>
<linearGradient id="paint5_linear_101_90" x1="93" y1="240.5" x2="236" y2="240.5" gradientUnits="userSpaceOnUse">
<stop stop-color="#2A426B"/>
<stop offset="1" stop-color="#D2CFCA" stop-opacity="0.21"/>
</linearGradient>
<linearGradient id="paint6_linear_101_90" x1="93" y1="264.5" x2="320" y2="264.5" gradientUnits="userSpaceOnUse">
<stop stop-color="#2A426B"/>
<stop offset="1" stop-color="#D2CFCA" stop-opacity="0.21"/>
</linearGradient>
<linearGradient id="paint7_linear_101_90" x1="93" y1="287.5" x2="179" y2="287.5" gradientUnits="userSpaceOnUse">
<stop stop-color="#B4B709"/>
<stop offset="1" stop-color="#D2CFCA" stop-opacity="0.21"/>
</linearGradient>
<linearGradient id="paint8_linear_101_90" x1="93" y1="336.5" x2="266" y2="336.5" gradientUnits="userSpaceOnUse">
<stop stop-color="#2D4772"/>
<stop offset="1" stop-color="#D2CFCA" stop-opacity="0.21"/>
</linearGradient>
<linearGradient id="paint9_linear_101_90" x1="93" y1="408.5" x2="236" y2="408.5" gradientUnits="userSpaceOnUse">
<stop stop-color="#2F4B79"/>
<stop offset="1" stop-color="#D2CFCA" stop-opacity="0.21"/>
</linearGradient>
<linearGradient id="paint10_linear_101_90" x1="93" y1="384.5" x2="320" y2="384.5" gradientUnits="userSpaceOnUse">
<stop stop-color="#2C456F"/>
<stop offset="1" stop-color="#D2CFCA" stop-opacity="0.21"/>
</linearGradient>
<linearGradient id="paint11_linear_101_90" x1="93" y1="360.5" x2="179" y2="360.5" gradientUnits="userSpaceOnUse">
<stop stop-color="#2C4570"/>
<stop offset="1" stop-color="#D2CFCA" stop-opacity="0.21"/>
</linearGradient>
<linearGradient id="paint12_linear_101_90" x1="334" y1="158" x2="381" y2="158" gradientUnits="userSpaceOnUse">
<stop stop-color="#BE7676"/>
<stop offset="1" stop-color="#D2CFCA" stop-opacity="0.21"/>
</linearGradient>
<linearGradient id="paint13_linear_101_90" x1="334" y1="169" x2="417" y2="169" gradientUnits="userSpaceOnUse">
<stop stop-color="#BE7676"/>
<stop offset="1" stop-color="#D2CFCA" stop-opacity="0.21"/>
</linearGradient>
<linearGradient id="paint14_linear_101_90" x1="334" y1="180" x2="359" y2="180" gradientUnits="userSpaceOnUse">
<stop stop-color="#BE7676"/>
<stop offset="1" stop-color="#D2CFCA" stop-opacity="0.21"/>
</linearGradient>
<linearGradient id="paint15_linear_101_90" x1="203" y1="301" x2="264" y2="301" gradientUnits="userSpaceOnUse">
<stop stop-color="#989B08"/>
<stop offset="1" stop-color="#D2CFCA" stop-opacity="0.21"/>
</linearGradient>
<linearGradient id="paint16_linear_101_90" x1="203" y1="311" x2="228" y2="311" gradientUnits="userSpaceOnUse">
<stop stop-color="#989B08"/>
<stop offset="1" stop-color="#D2CFCA" stop-opacity="0.21"/>
</linearGradient>
</defs>
</svg>
