<svg width="138" height="194" viewBox="0 0 138 194" fill="none" xmlns="http://www.w3.org/2000/svg">
<rect x="0.5" y="0.5" width="137" height="193" rx="9.5" fill="#D9D9D9" stroke="black"/>
<rect x="16" y="19" width="71" height="8" rx="4" fill="url(#paint0_linear_14_149)"/>
<rect x="16.5" y="19.5" width="70" height="7" rx="3.5" stroke="black" stroke-opacity="0.09"/>
<rect x="16.5" y="33.5" width="94" height="6" rx="3" fill="url(#paint1_linear_14_149)" stroke="#950A0A"/>
<rect x="16" y="44" width="47" height="8" rx="4" fill="url(#paint2_linear_14_149)"/>
<rect x="16.5" y="44.5" width="46" height="7" rx="3.5" stroke="black" stroke-opacity="0.09"/>
<rect x="16" y="68" width="76" height="8" rx="4" fill="url(#paint3_linear_14_149)"/>
<rect x="16.5" y="68.5" width="75" height="7" rx="3.5" stroke="black" stroke-opacity="0.09"/>
<rect x="16" y="80" width="63" height="9" rx="4.5" fill="url(#paint4_linear_14_149)"/>
<rect x="16.5" y="80.5" width="62" height="8" rx="4" stroke="black" stroke-opacity="0.09"/>
<rect x="16" y="92" width="101" height="10" rx="5" fill="url(#paint5_linear_14_149)"/>
<rect x="16.5" y="92.5" width="100" height="9" rx="4.5" stroke="black" stroke-opacity="0.09"/>
<rect x="16.5" y="105.5" width="36" height="7" rx="3.5" fill="url(#paint6_linear_14_149)" stroke="#939511"/>
<rect x="16" y="129" width="76" height="9" rx="4.5" fill="url(#paint7_linear_14_149)"/>
<rect x="16.5" y="129.5" width="75" height="8" rx="4" stroke="black" stroke-opacity="0.09"/>
<rect x="16" y="167" width="63" height="8" rx="4" fill="url(#paint8_linear_14_149)"/>
<rect x="16.5" y="167.5" width="62" height="7" rx="3.5" stroke="black" stroke-opacity="0.09"/>
<rect x="16" y="154" width="101" height="7" rx="3.5" fill="url(#paint9_linear_14_149)"/>
<rect x="16.5" y="154.5" width="100" height="6" rx="3" stroke="black" stroke-opacity="0.09"/>
<rect x="16" y="142" width="37" height="8" rx="4" fill="url(#paint10_linear_14_149)"/>
<rect x="16.5" y="142.5" width="36" height="7" rx="3.5" stroke="black" stroke-opacity="0.09"/>
<defs>
<linearGradient id="paint0_linear_14_149" x1="16" y1="23" x2="87" y2="23" gradientUnits="userSpaceOnUse">
<stop stop-color="#52667E"/>
<stop offset="1" stop-color="#D2CFCA" stop-opacity="0.21"/>
</linearGradient>
<linearGradient id="paint1_linear_14_149" x1="16" y1="36.5" x2="111" y2="36.5" gradientUnits="userSpaceOnUse">
<stop stop-color="#BE7676"/>
<stop offset="1" stop-color="#D2CFCA" stop-opacity="0.21"/>
</linearGradient>
<linearGradient id="paint2_linear_14_149" x1="16" y1="48" x2="63" y2="48" gradientUnits="userSpaceOnUse">
<stop stop-color="#52667E"/>
<stop offset="1" stop-color="#D2CFCA" stop-opacity="0.21"/>
</linearGradient>
<linearGradient id="paint3_linear_14_149" x1="16" y1="72" x2="92" y2="72" gradientUnits="userSpaceOnUse">
<stop stop-color="#52667E"/>
<stop offset="1" stop-color="#D2CFCA" stop-opacity="0.21"/>
</linearGradient>
<linearGradient id="paint4_linear_14_149" x1="16" y1="84.5" x2="79" y2="84.5" gradientUnits="userSpaceOnUse">
<stop stop-color="#52667E"/>
<stop offset="1" stop-color="#D2CFCA" stop-opacity="0.21"/>
</linearGradient>
<linearGradient id="paint5_linear_14_149" x1="16" y1="97" x2="117" y2="97" gradientUnits="userSpaceOnUse">
<stop stop-color="#52667E"/>
<stop offset="1" stop-color="#D2CFCA" stop-opacity="0.21"/>
</linearGradient>
<linearGradient id="paint6_linear_14_149" x1="16" y1="109" x2="53" y2="109" gradientUnits="userSpaceOnUse">
<stop stop-color="#B4B709"/>
<stop offset="1" stop-color="#D2CFCA" stop-opacity="0.21"/>
</linearGradient>
<linearGradient id="paint7_linear_14_149" x1="16" y1="133.5" x2="92" y2="133.5" gradientUnits="userSpaceOnUse">
<stop stop-color="#52667E"/>
<stop offset="1" stop-color="#D2CFCA" stop-opacity="0.21"/>
</linearGradient>
<linearGradient id="paint8_linear_14_149" x1="16" y1="171" x2="79" y2="171" gradientUnits="userSpaceOnUse">
<stop stop-color="#52667E"/>
<stop offset="1" stop-color="#D2CFCA" stop-opacity="0.21"/>
</linearGradient>
<linearGradient id="paint9_linear_14_149" x1="16" y1="157.5" x2="117" y2="157.5" gradientUnits="userSpaceOnUse">
<stop stop-color="#52667E"/>
<stop offset="1" stop-color="#D2CFCA" stop-opacity="0.21"/>
</linearGradient>
<linearGradient id="paint10_linear_14_149" x1="16" y1="146" x2="53" y2="146" gradientUnits="userSpaceOnUse">
<stop stop-color="#52667E"/>
<stop offset="1" stop-color="#D2CFCA" stop-opacity="0.21"/>
</linearGradient>
</defs>
</svg>
