<svg width="115" height="143" viewBox="0 0 115 143" fill="none" xmlns="http://www.w3.org/2000/svg">
<path d="M50.375 91.6281V114.25C50.375 116.269 51.059 117.962 52.427 119.33C53.795 120.698 55.486 121.38 57.5 121.375C59.514 121.37 61.2074 120.686 62.5801 119.323C63.9529 117.96 64.6345 116.269 64.625 114.25V91.6281L71.0375 98.0406C71.75 98.7531 72.5527 99.2875 73.4457 99.6437C74.3388 100 75.2294 100.15 76.1176 100.093C77.0059 100.036 77.8656 99.8266 78.6969 99.4656C79.5281 99.1046 80.3 98.5703 81.0125 97.8625C82.3187 96.4375 83.0028 94.775 83.0645 92.875C83.1263 90.975 82.4423 89.3125 81.0125 87.8875L62.4875 69.3625C61.775 68.65 61.0031 68.1465 60.1719 67.852C59.3406 67.5575 58.45 67.4079 57.5 67.4031C56.55 67.3984 55.6594 67.548 54.8281 67.852C53.9969 68.156 53.225 68.6595 52.5125 69.3625L33.9875 87.8875C32.5625 89.3125 31.8809 90.975 31.9426 92.875C32.0044 94.775 32.7454 96.4375 34.1656 97.8625C35.5906 99.1687 37.2531 99.8528 39.1531 99.9145C41.0531 99.9762 42.7156 99.2923 44.1406 97.8625L50.375 91.6281ZM14.75 142.75C10.8313 142.75 7.47775 141.356 4.6895 138.568C1.90125 135.779 0.50475 132.424 0.5 128.5V14.5C0.5 10.5813 1.8965 7.22775 4.6895 4.4395C7.4825 1.65125 10.836 0.25475 14.75 0.25H65.8719C67.7719 0.25 69.584 0.606251 71.3083 1.31875C73.0325 2.03125 74.5454 3.04063 75.8469 4.34688L110.403 38.9031C111.709 40.2094 112.719 41.7246 113.431 43.4489C114.144 45.1731 114.5 46.9829 114.5 48.8781V128.5C114.5 132.419 113.106 135.775 110.318 138.568C107.529 141.361 104.174 142.755 100.25 142.75H14.75ZM64.625 43C64.625 45.0187 65.309 46.7121 66.677 48.0801C68.045 49.4481 69.736 50.1297 71.75 50.125H100.25L64.625 14.5V43Z" fill="#1D2E4A"/>
</svg>
